<svg xmlns="http://www.w3.org/2000/svg" width="248" height="332" viewBox="0 0 248 332">
  <title>Movo — Egg stage</title>
  <g transform="translate(24.00 76.00) scale(1.0000)">
  <defs>
  <linearGradient id="gradEgg" x1="0" y1="0" x2="0" y2="1">
    <stop offset="0" stop-color="#CFF568"/>
    <stop offset="1" stop-color="#B4DF40"/>
  </linearGradient>
  </defs>
  <g id="egg">
  <path d="M 164.00,116.00 L 164.11,120.19 L 164.05,124.36 L 163.81,128.51 L 163.38,132.63 L 162.78,136.71 L 162.00,140.72 L 161.03,144.67 L 159.89,148.54 L 158.58,152.32 L 157.09,156.00 L 155.43,159.57 L 153.60,163.02 L 151.62,166.35 L 149.47,169.53 L 147.17,172.57 L 144.73,175.45 L 142.15,178.17 L 139.44,180.72 L 136.61,183.09 L 133.66,185.28 L 130.61,187.28 L 127.46,189.08 L 124.22,190.69 L 120.91,192.08 L 117.52,193.27 L 114.09,194.25 L 110.61,195.02 L 107.09,195.56 L 103.55,195.89 L 100.00,196.00 L 96.45,195.89 L 92.91,195.56 L 89.39,195.02 L 85.91,194.25 L 82.48,193.27 L 79.09,192.08 L 75.78,190.69 L 72.54,189.08 L 69.39,187.28 L 66.34,185.28 L 63.39,183.09 L 60.56,180.72 L 57.85,178.17 L 55.27,175.45 L 52.83,172.57 L 50.53,169.53 L 48.38,166.35 L 46.40,163.02 L 44.57,159.57 L 42.91,156.00 L 41.42,152.32 L 40.11,148.54 L 38.97,144.67 L 38.00,140.72 L 37.22,136.71 L 36.62,132.63 L 36.19,128.51 L 35.95,124.36 L 35.89,120.19 L 36.00,116.00 L 36.82,111.81 L 37.81,107.64 L 38.96,103.49 L 40.26,99.37 L 41.70,95.29 L 43.27,91.28 L 44.96,87.33 L 46.76,83.46 L 48.67,79.68 L 50.67,76.00 L 52.76,72.43 L 54.92,68.98 L 57.15,65.65 L 59.44,62.47 L 61.79,59.43 L 64.18,56.55 L 66.61,53.83 L 69.08,51.28 L 71.57,48.91 L 74.10,46.72 L 76.64,44.72 L 79.20,42.92 L 81.78,41.31 L 84.36,39.92 L 86.96,38.73 L 89.56,37.75 L 92.16,36.98 L 94.77,36.44 L 97.39,36.11 L 100.00,36.00 L 102.61,36.11 L 105.23,36.44 L 107.84,36.98 L 110.44,37.75 L 113.04,38.73 L 115.64,39.92 L 118.22,41.31 L 120.80,42.92 L 123.36,44.72 L 125.90,46.72 L 128.43,48.91 L 130.92,51.28 L 133.39,53.83 L 135.82,56.55 L 138.21,59.43 L 140.56,62.47 L 142.85,65.65 L 145.08,68.98 L 147.24,72.43 L 149.33,76.00 L 151.33,79.68 L 153.24,83.46 L 155.04,87.33 L 156.73,91.28 L 158.30,95.29 L 159.74,99.37 L 161.04,103.49 L 162.19,107.64 L 163.18,111.81 L 164.00,116.00 Z" fill="url(#gradEgg)" fill-opacity="1"/>
  </g>
  <g id="cracks">
  <path d="M 80.00,107.00 L 100.00,101.00 L 120.00,109.00" fill="none" stroke="#D0F769" stroke-width="5.00" stroke-opacity="1" stroke-linecap="round"/>
  <path d="M 94.00,123.00 L 122.00,127.00" fill="none" stroke="#D0F769" stroke-width="5.00" stroke-opacity="1" stroke-linecap="round"/>
  </g>
  </g>
</svg>
