<svg xmlns="http://www.w3.org/2000/svg" width="338" height="436" viewBox="0 0 338 436">
  <title>Movo — Champion stage</title>
  <g transform="translate(24.00 76.00) scale(1.4500)">
  <defs>
  <linearGradient id="gradHead" x1="0" y1="0" x2="0" y2="1">
    <stop offset="0" stop-color="#CFF468"/>
    <stop offset="1" stop-color="#BCE843"/>
  </linearGradient>
  <linearGradient id="gradTorso" x1="0" y1="0" x2="0" y2="1">
    <stop offset="0" stop-color="#CEF467"/>
    <stop offset="1" stop-color="#BAE642"/>
  </linearGradient>
  </defs>
  <g id="cape">
  <path d="M 100.00,82.00 L 61.60,100.00 L 52.00,202.00 L 100.00,180.40 L 148.00,202.00 L 138.40,100.00 Z" fill="#A6CE3B" fill-opacity="1"/>
  </g>
  <g id="legs">
  <rect x="59.00" y="190.00" width="34.00" height="20.00" rx="10.00" fill="#F3F4F0" stroke="#000000" stroke-width="1" stroke-opacity="0.08"/>
  <rect x="66.00" y="197.50" width="20.00" height="5.00" rx="2.50" fill="#C6F24E"/>
  <rect x="107.00" y="190.00" width="34.00" height="20.00" rx="10.00" fill="#F3F4F0" stroke="#000000" stroke-width="1" stroke-opacity="0.08"/>
  <rect x="114.00" y="197.50" width="20.00" height="5.00" rx="2.50" fill="#C6F24E"/>
  </g>
  <g id="arms">
  <rect x="16.00" y="92.00" width="30.00" height="64.00" rx="15.00" fill="#C6F24E" transform="rotate(-14.00 31.00 92.00)"/>
  <rect x="154.00" y="92.00" width="30.00" height="64.00" rx="15.00" fill="#C6F24E" transform="rotate(14.00 169.00 92.00)"/>
  </g>
  <g id="torso">
  <rect x="46.00" y="92.00" width="108.00" height="96.00" rx="34.00" fill="url(#gradTorso)"/>
  </g>
  <g id="tank_top">
  <rect x="78.00" y="103.00" width="44.00" height="66.00" rx="14.00" fill="#85A52F"/>
  </g>
  <g id="gold_band">
  <rect x="50.00" y="166.00" width="100.00" height="12.00" rx="6.00" fill="#E8B84B"/>
  </g>
  <g id="head">
  <circle cx="100.00" cy="58.00" r="59.00" fill="url(#gradHead)"/>
  </g>
  <g id="face">
  <circle cx="83.50" cy="54.00" r="5.50" fill="#000000" fill-opacity="0.85"/>
  <circle cx="116.50" cy="54.00" r="5.50" fill="#000000" fill-opacity="0.85"/>
  <path d="M 87.00,74.00 Q 100.00,86.00 113.00,74.00" fill="none" stroke="#000000" stroke-width="4.00" stroke-opacity="0.85" stroke-linecap="round"/>
  </g>
  <g id="headband">
  <rect x="46.00" y="4.00" width="108.00" height="16.00" rx="8.00" fill="#FFB13D"/>
  </g>
  <g id="crown">
  <path d="M 70.00,1.00 L 70.00,-17.70 L 82.00,-9.20 L 91.00,-27.90 L 100.00,-14.30 L 109.00,-27.90 L 118.00,-9.20 L 130.00,-17.70 L 130.00,1.00 Z" fill="#E8B84B" fill-opacity="1"/>
  </g>
  </g>
</svg>
